<svg width="32" height="33" viewBox="0 0 32 33" fill="none" xmlns="http://www.w3.org/2000/svg">
<path d="M7.67668 0.885061C7.3251 1.24357 7.28454 1.36307 7.28454 2.13319V2.99627L5.29677 3.04938C3.37662 3.08921 3.26844 3.10249 2.57881 3.47427C1.65929 3.97884 1.01023 4.69585 0.469339 5.79793L0.0501499 6.67427L0.00958319 16.9647C-0.0174613 24.5332 0.00958319 27.4544 0.131283 27.9855C0.550472 29.9108 2.07848 31.5971 3.99864 32.2477C4.72884 32.4867 5.22916 32.5 15.9388 32.5C26.7701 32.5 27.1487 32.4867 27.9059 32.2344C28.3386 32.0884 28.9471 31.8228 29.2582 31.6369C30.1101 31.1589 31.1513 29.9639 31.5028 29.0743C31.8138 28.3174 31.8138 28.251 31.922 18.3589C31.9896 12.8751 32.0167 7.97552 31.9896 7.47095C31.922 6.14315 31.4082 5.08091 30.394 4.16473C29.3258 3.19543 28.7578 3.02282 26.6078 3.02282H24.8905L24.8364 2.08008C24.7958 1.24357 24.7417 1.09751 24.4172 0.818672C24.0386 0.5 23.6059 0.42033 23.1731 0.579668C22.8081 0.725725 22.5646 1.37635 22.5646 2.22614V3.02282H16.0469H9.51571L9.55627 2.27925C9.62388 1.4029 9.42105 0.858505 8.96129 0.646057C8.4204 0.407055 8.10939 0.473442 7.67668 0.885061ZM7.28454 5.75809C7.28454 6.54149 7.3251 6.661 7.67668 7.0195C8.19053 7.52407 8.67733 7.52407 9.19117 7.00622C9.56979 6.63444 9.59684 6.54149 9.56979 5.78465L9.52923 4.94813L16.0469 4.9083L22.5646 4.88174V5.75809C22.5646 6.54149 22.6052 6.661 22.9568 7.0195C23.4436 7.48423 23.9033 7.51079 24.4172 7.08589C24.7417 6.80705 24.7958 6.661 24.8364 5.82448L24.8905 4.88174H26.432C28.1358 4.88174 28.6091 5.00124 29.2446 5.62531C30.083 6.44855 30.0424 5.94398 30.0154 17.2967C30.0019 23.2851 29.9343 27.8527 29.8531 28.1315C29.6909 28.7822 28.7578 29.778 27.9194 30.2162L27.2298 30.5747H15.9388H4.64771L4.10682 30.2826C3.36309 29.8975 2.56528 29.0876 2.22723 28.3838C1.94326 27.7996 1.94326 27.6535 1.90269 17.5091L1.87565 7.24523L2.20018 6.54149C2.51119 5.86432 3.10617 5.29336 3.76876 5.0278C3.95807 4.96141 4.82349 4.89502 5.70244 4.89502L7.28454 4.88174V5.75809Z" fill="white"/>
<path d="M25.1342 9.70209C25.0936 9.74192 24.2553 9.86143 23.2546 9.99421C20.5367 10.3262 19.0222 10.8573 17.2102 12.132C14.9385 13.712 13.9108 15.7569 13.9108 18.7179V19.7535H9.80001C7.50123 19.7535 5.52699 19.8067 5.33768 19.8863C4.82383 20.0722 4.53987 20.5635 4.71566 21.0017C4.78327 21.2008 4.95906 21.3867 5.08076 21.4266C5.66221 21.5992 5.70278 21.7054 6.02731 23.5511C6.48707 26.2598 7.13613 27.3486 8.79937 28.2116L9.51605 28.5834L15.7768 28.6233L22.0376 28.6631L22.8354 28.3046C23.809 27.8797 24.7421 26.9369 25.2153 25.9278C25.4047 25.5295 25.7157 24.4008 25.905 23.4316C26.1889 21.9311 26.2836 21.6523 26.527 21.5328C27.2437 21.2274 27.3519 20.1253 26.6757 19.8863C26.4864 19.8067 24.4446 19.7535 22.0511 19.7403C18.8329 19.7403 17.8457 19.7004 18.1027 19.5942C18.292 19.5145 18.8058 19.2888 19.252 19.1029C21.8077 18.054 23.6738 16.1154 24.4987 13.6988C25.0125 12.1452 25.4587 9.3967 25.1342 9.70209ZM19.8335 14.8805C18.8193 16.1021 16.3042 18.8639 15.6146 19.4747C15.1548 19.8863 15.1548 19.6473 15.601 18.7046C16.0608 17.7486 16.9668 16.527 17.8593 15.6772C18.6435 14.9336 20.6719 13.473 20.7801 13.566C20.8071 13.6058 20.3879 14.1901 19.8335 14.8805ZM24.2147 22.0506C23.8766 24.5867 23.4034 25.795 22.5515 26.3527L21.97 26.7245H15.9256H9.88115L9.29969 26.3262C8.50188 25.7818 8.1503 25.0116 7.85281 23.2722L7.60941 21.8116L10.5302 21.7452C12.1258 21.7054 15.8715 21.6921 18.8464 21.7187L24.2553 21.7452L24.2147 22.0506Z" fill="white"/>
<path d="M7.96094 15.2384C7.96094 15.7031 8.62353 16.9778 9.16442 17.5355C10.0163 18.4384 10.8953 18.85 12.1123 18.9297L13.0859 18.9961L13.0182 18.4783C12.8019 16.9247 11.8689 15.8492 10.3273 15.3845C9.39429 15.0924 7.96094 15.0127 7.96094 15.2384Z" fill="white"/>
</svg>
