<svg width="81" height="120" viewBox="0 0 81 120" fill="none" xmlns="http://www.w3.org/2000/svg">
<g filter="url(#filter0_d_864_187)">
<path d="M73.3125 0H7.6875C5.87384 0 4.40625 1.46759 4.40625 3.28125V108.717C4.40625 110.044 5.20731 111.242 6.43144 111.749C7.649 112.258 9.06541 111.979 10.0076 111.037C12.3506 108.694 16.1496 108.694 18.4927 111.037C19.7743 112.319 21.8509 112.319 23.1326 111.037C25.4756 108.694 29.2746 108.694 31.6177 111.037C32.8993 112.319 34.9759 112.319 36.2576 111.037C38.6006 108.694 42.3996 108.694 44.7427 111.037C46.0243 112.319 48.1009 112.319 49.3826 111.037C51.7256 108.694 55.5246 108.694 57.8677 111.037C59.1493 112.319 61.2259 112.319 62.5076 111.037C64.8506 108.694 68.6496 108.694 70.9927 111.037C71.9473 111.992 73.3757 112.25 74.5688 111.749C75.7929 111.243 76.594 110.044 76.594 108.718V3.28125C76.5938 1.46759 75.1262 0 73.3125 0Z" fill="#394614"/>
</g>
<path d="M40.5 35.303C38.6927 35.303 37.2187 33.8321 37.2187 32.0217C37.2187 30.2114 38.6927 28.7405 40.5 28.7405C42.3073 28.7405 43.7812 30.2114 43.7812 32.0217C43.7812 33.8354 45.2488 35.303 47.0625 35.303C48.8762 35.303 50.3437 33.8354 50.3437 32.0217C50.3437 27.7495 47.5927 24.1415 43.7812 22.7824V18.8967C43.7812 17.0831 42.3137 15.6155 40.5 15.6155C38.6863 15.6155 37.2187 17.0831 37.2187 18.8967V22.7824C33.4072 24.1415 30.6562 27.7495 30.6562 32.0217C30.6562 37.4498 35.0719 41.8655 40.5 41.8655C42.3073 41.8655 43.7812 43.3364 43.7812 45.1467C43.7812 46.9571 42.3073 48.428 40.5 48.428C38.6927 48.428 37.2187 46.9571 37.2187 45.1467C37.2187 43.3331 35.7512 41.8655 33.9375 41.8655C32.1238 41.8655 30.6562 43.3331 30.6562 45.1467C30.6562 49.4189 33.4072 53.027 37.2187 54.3861V58.2717C37.2187 60.0854 38.6863 61.553 40.5 61.553C42.3137 61.553 43.7812 60.0854 43.7812 58.2717V54.3861C47.5927 53.0272 50.3437 49.4189 50.3437 45.1467C50.3437 39.7187 45.9283 35.303 40.5 35.303ZM40.5 68.1155H20.8125C18.9988 68.1155 17.5312 69.5831 17.5312 71.3967C17.5312 73.2104 18.9988 74.678 20.8125 74.678H40.5C42.3137 74.678 43.7812 73.2104 43.7812 71.3967C43.7812 69.5831 42.3137 68.1155 40.5 68.1155ZM40.5 81.2405H20.8125C18.9988 81.2405 17.5312 82.7081 17.5312 84.5217C17.5312 86.3354 18.9988 87.803 20.8125 87.803H40.5C42.3137 87.803 43.7812 86.3354 43.7812 84.5217C43.7812 82.7081 42.3137 81.2405 40.5 81.2405ZM53.625 74.678H60.1875C62.0012 74.678 63.4687 73.2104 63.4687 71.3967C63.4687 69.5831 62.0012 68.1155 60.1875 68.1155H53.625C51.8113 68.1155 50.3437 69.5831 50.3437 71.3967C50.3437 73.2104 51.8113 74.678 53.625 74.678ZM60.1875 81.2405H53.625C51.8113 81.2405 50.3437 82.7081 50.3437 84.5217C50.3437 86.3354 51.8113 87.803 53.625 87.803H60.1875C62.0012 87.803 63.4687 86.3354 63.4687 84.5217C63.4687 82.7081 62.0012 81.2405 60.1875 81.2405Z" fill="white"/>
<defs>
<filter id="filter0_d_864_187" x="0.40625" y="0" width="80.1875" height="120" filterUnits="userSpaceOnUse" color-interpolation-filters="sRGB">
<feFlood flood-opacity="0" result="BackgroundImageFix"/>
<feColorMatrix in="SourceAlpha" type="matrix" values="0 0 0 0 0 0 0 0 0 0 0 0 0 0 0 0 0 0 127 0" result="hardAlpha"/>
<feOffset dy="4"/>
<feGaussianBlur stdDeviation="2"/>
<feComposite in2="hardAlpha" operator="out"/>
<feColorMatrix type="matrix" values="0 0 0 0 0 0 0 0 0 0 0 0 0 0 0 0 0 0 0.25 0"/>
<feBlend mode="normal" in2="BackgroundImageFix" result="effect1_dropShadow_864_187"/>
<feBlend mode="normal" in="SourceGraphic" in2="effect1_dropShadow_864_187" result="shape"/>
</filter>
</defs>
</svg>
